#N canvas 205 86 597 657 10;
#X floatatom 100 170 5 0 0 0 - - -, f 5;
#X obj 100 207 moses 100;
#X floatatom 99 241 5 0 0 0 - - -, f 5;
#X obj 101 463 osc~;
#X floatatom 101 384 5 0 0 0 - - -, f 5;
#X obj 99 535 *~ 0.1;
#X obj 99 621 dac~;
#X floatatom 329 290 5 0 0 0 - - -, f 5;
#X obj 329 265 moses 1;
#X obj 99 121 comport 32 9600;
#X obj 100 435 line~;
#X obj 325 386 vsl 15 128 0 1 0 0 empty empty empty 0 -9 0 10 -262144
-1 -1 8128 1;
#X obj 328 330 pack 0 100;
#X obj 98 323 + 150;
#X obj 100 413 pack 0 2;
#X obj 99 260 * 1.1;
#X msg 465 191 \; pd dsp \$1;
#X obj 414 196 tgl 15 0 empty empty empty 17 7 0 10 -262144 -1 -1 1
1;
#X floatatom 243 75 5 0 0 0 - - -, f 5;
#X obj 242 49 comport 33 9600;
#X floatatom 370 159 5 0 0 0 - - -, f 5;
#X obj 355 109 > 8;
#X obj 332 232 / 50;
#X connect 0 0 1 0;
#X connect 1 0 2 0;
#X connect 2 0 15 0;
#X connect 3 0 5 0;
#X connect 4 0 14 0;
#X connect 5 0 6 0;
#X connect 5 0 6 1;
#X connect 7 0 12 0;
#X connect 8 0 7 0;
#X connect 9 0 0 0;
#X connect 10 0 3 0;
#X connect 11 0 5 1;
#X connect 12 0 11 0;
#X connect 13 0 4 0;
#X connect 14 0 10 0;
#X connect 15 0 13 0;
#X connect 17 0 16 0;
#X connect 18 0 21 0;
#X connect 18 0 22 0;
#X connect 19 0 18 0;
#X connect 20 0 17 0;
#X connect 21 0 20 0;
#X connect 22 0 8 0;
